<?xml version="1.0" encoding="UTF-8" standalone="no"?>
<svg
   width="128"
   height="128"
   viewBox="0 0 33.866666 33.866668"
   version="1.1"
   id="svg8"
   sodipodi:docname="icon.svg"
   inkscape:export-filename="D:\USR_MSM\misc\breakthrough-twitter-login-wall\dist\src\img\icon128.png"
   inkscape:export-xdpi="96"
   inkscape:export-ydpi="96"
   inkscape:version="1.1 (c68e22c387, 2021-05-23)"
   xmlns:inkscape="http://www.inkscape.org/namespaces/inkscape"
   xmlns:sodipodi="http://sodipodi.sourceforge.net/DTD/sodipodi-0.dtd"
   xmlns="http://www.w3.org/2000/svg"
   xmlns:svg="http://www.w3.org/2000/svg"
   xmlns:rdf="http://www.w3.org/1999/02/22-rdf-syntax-ns#"
   xmlns:cc="http://creativecommons.org/ns#"
   xmlns:dc="http://purl.org/dc/elements/1.1/">
  <defs
     id="defs2"><clipPath
   clipPathUnits="userSpaceOnUse"
   id="clipPath891">
  <path
     sodipodi:nodetypes="ccccc"
     d="M 33.86667,33.86667 H 2.486025 L 31.380518,0 h 2.486152 z"
     style="fill:#0800ff;fill-opacity:0.545035;stroke:none;stroke-width:0.529169;stroke-linejoin:round"
     id="path893" />
</clipPath>
<clipPath
   clipPathUnits="userSpaceOnUse"
   id="clipPath897">
  <path
     id="path899"
     style="fill:#0800ff;fill-opacity:0.124711;stroke:none;stroke-width:0.529169;stroke-linejoin:round"
     d="M 0,0 H 31.380518 L 2.486025,33.86667 H 0 Z"
     sodipodi:nodetypes="ccccc" />
</clipPath>

	
	
</defs>
  <sodipodi:namedview
     id="base"
     pagecolor="#ffffff"
     bordercolor="#666666"
     borderopacity="1.0"
     inkscape:pageopacity="0.0"
     inkscape:pageshadow="2"
     inkscape:zoom="1.4"
     inkscape:cx="-33.571429"
     inkscape:cy="59.642857"
     inkscape:document-units="px"
     inkscape:current-layer="layer1"
     inkscape:document-rotation="0"
     showgrid="false"
     units="px"
     inkscape:pagecheckerboard="true"
     inkscape:window-width="1920"
     inkscape:window-height="1017"
     inkscape:window-x="-8"
     inkscape:window-y="-8"
     inkscape:window-maximized="1"
     inkscape:snap-global="false" />
  <metadata
     id="metadata5">
    <rdf:RDF>
      <cc:Work
         rdf:about="">
        <dc:format>image/svg+xml</dc:format>
        <dc:type
           rdf:resource="http://purl.org/dc/dcmitype/StillImage" />
      </cc:Work>
    </rdf:RDF>
  </metadata>
  <g
     inkscape:label="レイヤー 1"
     inkscape:groupmode="layer"
     id="layer1">
    <rect
       style="fill:#ffffff;stroke:none;stroke-width:0.529167;stroke-linejoin:round;fill-opacity:1"
       id="rect833"
       width="33.866669"
       height="33.866669"
       x="-5.5511151e-17"
       y="0"
       rx="1.5875" />
    <g
       aria-label="t"
       transform="scale(1.2198648,0.81976296)"
       id="text1645"
       style="font-size:49.4592px;line-height:1.25;fill:#1da1f2;stroke-width:0.264583">
      <path
         d="M 18.206563,37.347466 V 32.302627 H 13.062806 V 15.338121 h 5.539431 V 10.293282 H 13.062806 V 2.8744019 H 7.3749981 v 4.6491649 c 0,1.8794497 -0.6429696,2.7697152 -2.5718785,2.7697152 H 2.6269148 v 5.044839 h 4.1051137 v 15.381811 c 0,4.204033 2.3245825,6.627534 6.6769925,6.627534 z"
         style="font-weight:600;font-family:'IBM Plex Sans JP';-inkscape-font-specification:'IBM Plex Sans JP Semi-Bold'"
         id="path10390" />
    </g>
    <path
       d="m 28.376414,20.007362 c -0.0932,-1.644445 -0.73261,-3.034294 -1.865942,-4.037556 -1.084743,-0.959716 -2.538879,-1.488449 -4.09531,-1.488449 -1.556219,0 -3.010569,0.528733 -4.095168,1.488733 -1.133262,1.003262 -1.772669,2.393111 -1.865943,4.037556 -0.700925,0.282729 -1.199326,0.96682 -1.199326,1.763151 v 7.645474 c 0,1.046381 0.85927,1.901672 1.909489,1.901672 h 10.502181 c 1.050289,0 1.909486,-0.855575 1.909486,-1.90153 v -7.645474 c 0,-0.796331 -0.498683,-1.480422 -1.199113,-1.763151 z m -4.584049,7.871978 c 0.05733,0.336078 -0.175959,0.611279 -0.518361,0.611279 h -1.717473 c -0.342613,0 -0.575829,-0.275201 -0.518502,-0.611279 l 0.45194,-2.648063 c -0.466574,-0.302122 -0.775729,-0.824673 -0.775729,-1.420252 0,-0.935422 0.761593,-1.693747 1.700922,-1.693747 0.9394,0 1.70085,0.758325 1.70085,1.693747 0,0.595579 -0.309084,1.11813 -0.775516,1.420252 l 0.453219,2.647566 z M 17.52686,19.868839 c 0.267883,-2.970503 2.657655,-4.331297 4.887946,-4.331297 1.296221,0 2.500236,0.433898 3.390477,1.221916 0.871061,0.771041 1.383171,1.838024 1.498253,3.109381 h -9.776888 z"
       id="path7277"
       style="fill:#000000;fill-opacity:1;stroke-width:0.264583"
       sodipodi:nodetypes="ccsccsssssscccssccsssccccssccc" />
    <g
       aria-label="×"
       id="text9780"
       style="font-size:10.5833px;line-height:1.25;fill:#ff0000;stroke-width:0.128698"
       transform="matrix(2.0558523,0,0,2.0558523,88.916895,30.952831)">
      <path
         d="m -29.24298,-4.7394489 -2.361606,2.3719406 2.361606,2.36160548 -0.614948,0.62528284 -2.371941,-2.37194072 -2.37194,2.37194072 -0.60978,-0.62528284 2.356437,-2.36160548 -2.356437,-2.3719406 0.60978,-0.6252829 2.37194,2.3719407 2.371941,-2.3719407 z"
         id="path10411"
         style="fill:#ff0000;stroke-width:0.128698" />
    </g>
  </g>
</svg>
